<svg width="512" height="512" viewBox="0 0 512 512" fill="none" xmlns="http://www.w3.org/2000/svg" xmlns:xlink="http://www.w3.org/1999/xlink" class=""><rect id="r9" width="512" height="512" x="0" y="0" rx="128" fill="url(#ra)" stroke="#FFFFFF" stroke-width="0" stroke-opacity="100%" paint-order="stroke"></rect><clipPath id="clip"><use xlink:href="#r9"></use></clipPath><defs><radialGradient id="ra" cx="50%" cy="50%" r="100%" fx="50%" fy="50%" gradientUnits="objectBoundingBox"><stop stop-color="#2B60E5"></stop><stop offset="1" stop-color="#1C3B81"></stop></radialGradient><radialGradient id="rb" cx="0" cy="0" r="1" gradientUnits="userSpaceOnUse" gradientTransform="translate(256) rotate(90) scale(512)"><stop stop-color="white"></stop><stop offset="1" stop-color="white" stop-opacity="0"></stop></radialGradient></defs><svg t="1736771864333" class="icon" viewBox="0 0 1024 1024" version="1.1" xmlns="http://www.w3.org/2000/svg" p-id="8280" xmlns:xlink="http://www.w3.org/1999/xlink" width="400" height="400" x="56" y="56" alignment-baseline="middle" style="color: rgb(227, 239, 255);"><path d="M232.533333 345.6l324.266667 320c17.066667 17.066667 17.066667 42.666667 0 59.733333l-117.333333 115.2c-17.066667 17.066667-42.666667 17.066667-59.733334 0l-324.266666-320c-17.066667-17.066667-17.066667-42.666667 0-59.733333l117.333333-115.2c14.933333-17.066667 42.666667-17.066667 59.733333 0z" fill="#ffffff" p-id="8281" data-spm-anchor-id="a313x.search_index.0.i8.78ef3a81XqA5CS" class="selected"></path><path d="M968.533333 315.733333L439.466667 840.533333c-17.066667 17.066667-42.666667 17.066667-59.733334 0L262.4 725.333333c-17.066667-17.066667-17.066667-42.666667 0-59.733333L791.466667 140.8c17.066667-17.066667 42.666667-17.066667 59.733333 0l117.333333 115.2c17.066667 17.066667 17.066667 42.666667 0 59.733333z" fill="#ffffff" p-id="8282" data-spm-anchor-id="a313x.search_index.0.i7.78ef3a81XqA5CS" class="selected"></path></svg></svg>