<svg width="512" height="512" viewBox="0 0 512 512" fill="none" xmlns="http://www.w3.org/2000/svg" xmlns:xlink="http://www.w3.org/1999/xlink" class=""><rect id="r9" width="512" height="512" x="0" y="0" rx="128" fill="#2C5FE5" stroke="#FFFFFF" stroke-width="0" stroke-opacity="100%" paint-order="stroke"></rect><clipPath id="clip"><use xlink:href="#r9"></use></clipPath><defs><linearGradient id="ra" gradientUnits="userSpaceOnUse" gradientTransform="rotate(45)" style="transform-origin: center center;"><stop stop-color="#2C5FE5"></stop><stop offset="1" stop-color="#7F7FD5"></stop></linearGradient><radialGradient id="rb" cx="0" cy="0" r="1" gradientUnits="userSpaceOnUse" gradientTransform="translate(256) rotate(90) scale(512)"><stop stop-color="white"></stop><stop offset="1" stop-color="white" stop-opacity="0"></stop></radialGradient></defs><svg t="1736825758763" class="icon" viewBox="0 0 1024 1024" version="1.1" xmlns="http://www.w3.org/2000/svg" p-id="5210" xmlns:xlink="http://www.w3.org/1999/xlink" width="400" height="400" x="56" y="56" alignment-baseline="middle" style="color: rgb(255, 255, 255);"><path d="M139.904 567.722667l226.858667 226.858666a42.794667 42.794667 0 0 0 60.330666 0l54.613334-54.613333a42.794667 42.794667 0 0 0 0-60.330667l-226.858667-226.858666a42.794667 42.794667 0 0 0-60.330667 0l-54.613333 54.613333a42.794667 42.794667 0 0 0 0 60.330667z" fill="#ffffff" p-id="5211" data-spm-anchor-id="a313x.search_index.0.i1.78ef3a810lWvgc" class="selected"></path><path d="M427.264 794.709333L884.010667 337.962667a42.794667 42.794667 0 0 0 0-60.373334l-54.613334-54.613333a42.794667 42.794667 0 0 0-60.330666 0L282.154667 709.973333 366.933333 794.709333a42.794667 42.794667 0 0 0 60.330667 0z" fill="#ffffff" p-id="5212" data-spm-anchor-id="a313x.search_index.0.i0.78ef3a810lWvgc" class="selected"></path></svg></svg>